<svg width="571" height="544" viewBox="0 0 571 544" fill="none" xmlns="http://www.w3.org/2000/svg">
<g clip-path="url(#clip0_1350_1177)">
<path d="M285.1 0C327.5 0 386 148.7 392.5 152.8C399 156.8 556.1 175.8 569.1 206.4C582.1 237 461.2 347.5 458.2 355C455.2 362.5 485.4 519.7 460.6 540.3C435.7 560.9 293.7 480.4 285 480.4C276.3 480.4 140 561.3 109.5 540.3C78.9 519.3 114.1 363.5 111.9 355C109.7 346.5 -12.8 246.8 1 206.4C14.8 165.9 172 157 177.6 152.8C183.4 148.6 242.7 0 285.1 0Z" fill="#FFBD39"/>
<path d="M285.1 18.5C324.7 18.5 376.5 162.5 382.6 166.2C388.6 170 537.7 182.4 549.9 210.8C562.1 239.3 446.7 339.7 443.9 346.7C441.1 353.7 471.9 502.9 448.8 522.1C425.6 541.3 293.2 463.6 285.2 463.6C277.1 463.6 150.1 541.7 121.6 522.1C93.1 502.5 131.2 357.3 129.1 349.4C127 341.4 7.5 248.5 20.4 210.8C33.3 173.1 185.1 170.1 190.4 166.2C195.6 162.3 245.6 18.5 285.1 18.5Z" fill="url(#paint0_linear_1350_1177)"/>
<path d="M55 217.8C52.2 191 140.2 175.2 144.1 206.6C148 238 58.8 254.3 55 217.8Z" fill="white"/>
<path d="M166.6 197.8C165.9 180.5 192.2 179.5 193.6 193.7C195.2 209.5 167.3 213.9 166.6 197.8Z" fill="white"/>
<g opacity="0.6">
<g opacity="0.6">
<g opacity="0.6">
<path opacity="0.6" d="M209.3 338.4C209.3 355.8 194 370 175.1 370C156.2 370 140.9 355.9 140.9 338.4C140.9 321 156.2 306.8 175.1 306.8C194 306.9 209.3 321 209.3 338.4Z" fill="#FF1448"/>
</g>
<g opacity="0.6">
<path opacity="0.6" d="M436.2 338.4C436.2 355.8 420.9 370 402 370C383.1 370 367.8 355.9 367.8 338.4C367.8 321 383.1 306.8 402 306.8C420.9 306.9 436.2 321 436.2 338.4Z" fill="#FF1448"/>
</g>
</g>
</g>
<path d="M189.2 233.1C135.8 236.5 150.3 315.1 193.2 313.6C236.1 312.2 242.6 229.7 189.2 233.1Z" fill="#541300"/>
<path d="M207.7 270.1C196.4 269.1 192.7 290.5 205.6 292.5C218.5 294.5 223.9 271.5 207.7 270.1Z" fill="white"/>
<path d="M382.6 233.1C436 236.5 421.5 315.1 378.6 313.6C335.7 312.2 329.2 229.7 382.6 233.1Z" fill="#541300"/>
<path d="M364.1 270.1C375.5 269.1 379.1 290.5 366.2 292.5C353.3 294.5 348 271.5 364.1 270.1Z" fill="white"/>
<path d="M343.1 352.2C353 339.9 338.7 330.4 329.3 341.8C311.2 363.8 262.4 361.9 244 341.8C234 330.9 221.2 339.2 230.2 352.2C251.3 382.8 315.6 386.4 343.1 352.2Z" fill="#872A2A"/>
</g>
<defs>
<linearGradient id="paint0_linear_1350_1177" x1="152.855" y1="146.8" x2="465.056" y2="521.827" gradientUnits="userSpaceOnUse">
<stop offset="0.0430108" stop-color="#FFF466"/>
<stop offset="0.0752688" stop-color="#FFF466"/>
<stop offset="0.3152" stop-color="#FFEC5F"/>
<stop offset="0.6922" stop-color="#FFD54D"/>
<stop offset="0.8602" stop-color="#FFC943"/>
</linearGradient>
<clipPath id="clip0_1350_1177">
<rect width="570.2" height="543.8" fill="white"/>
</clipPath>
</defs>
</svg>
