<svg width="571" height="544" viewBox="0 0 571 544" fill="none" xmlns="http://www.w3.org/2000/svg">
<g clip-path="url(#clip0_1350_1214)">
<path d="M285.1 0C327.5 0 386 148.7 392.5 152.8C399 156.8 556.1 175.8 569.1 206.4C582.1 237 461.2 347.5 458.2 355C455.2 362.5 485.4 519.7 460.6 540.3C435.8 560.9 293.7 480.4 285.1 480.4C276.4 480.4 140.1 561.3 109.5 540.3C78.9 519.3 114.1 363.5 111.9 355C109.7 346.5 -12.8 246.8 0.999972 206.4C14.8 165.9 172 157 177.6 152.8C183.4 148.6 242.7 0 285.1 0Z" fill="#FF7DB3"/>
<path d="M285.1 18.5C324.7 18.5 376.5 162.5 382.6 166.2C388.6 170 537.7 182.4 549.9 210.8C562 239.3 446.7 339.7 443.9 346.7C441.1 353.7 471.9 502.9 448.8 522.1C425.6 541.3 293.2 463.6 285.2 463.6C277.1 463.6 150.1 541.7 121.6 522.1C93.1 502.5 131.2 357.3 129.1 349.4C127 341.4 7.5 248.5 20.4 210.8C33.3 173.1 185.1 170.1 190.4 166.2C195.6 162.3 245.6 18.5 285.1 18.5Z" fill="url(#paint0_linear_1350_1214)"/>
<path d="M55 217.8C52.2 191 140.2 175.2 144.1 206.6C148 238 58.7 254.3 55 217.8Z" fill="white"/>
<path d="M166.6 197.8C165.9 180.5 192.2 179.5 193.6 193.7C195.2 209.5 167.2 213.9 166.6 197.8Z" fill="white"/>
<g opacity="0.6">
<g opacity="0.6">
<g opacity="0.6">
<path opacity="0.6" d="M205.9 372.8C205.9 390.2 190.6 404.4 171.7 404.4C152.8 404.4 137.5 390.3 137.5 372.8C137.5 355.4 152.8 341.2 171.7 341.2C190.5 341.3 205.9 355.4 205.9 372.8Z" fill="#FF1448"/>
</g>
<g opacity="0.6">
<path opacity="0.6" d="M432.7 372.8C432.7 390.2 417.4 404.4 398.5 404.4C379.6 404.4 364.3 390.3 364.3 372.8C364.3 355.4 379.6 341.2 398.5 341.2C417.4 341.3 432.7 355.4 432.7 372.8Z" fill="#FF1448"/>
</g>
</g>
</g>
<path d="M335.4 223.7C330.6 236.6 357.5 275.2 389.4 263.9C394.7 262 376.6 255.1 361.2 244.3C348.4 235.4 336.6 220.4 335.4 223.7Z" fill="#541300"/>
<path d="M231.6 223.7C236.4 236.6 209.5 275.2 177.6 263.9C172.3 262 190.4 255.1 205.8 244.3C218.6 235.4 230.3 220.4 231.6 223.7Z" fill="#541300"/>
<path d="M343.9 417.3C340.8 419.7 227.5 419.7 224.3 417.3C217.9 412.6 229.6 378.9 284.1 378.9C338.6 378.9 350.1 412.6 343.9 417.3Z" fill="#872A2A"/>
<path d="M419 308.1C427.6 315.4 414.8 354.7 380.4 354.7C346 354.7 333.8 315.9 341 308.1C347.2 301.4 354.8 332.4 379.6 332.4C404.4 332.4 411.7 301.9 419 308.1Z" fill="#541300"/>
<path d="M228.5 308.1C237.1 315.4 224.3 354.7 189.9 354.7C155.5 354.7 143.3 315.9 150.5 308.1C156.7 301.4 164.3 332.4 189.1 332.4C213.9 332.4 221.2 301.9 228.5 308.1Z" fill="#541300"/>
</g>
<defs>
<linearGradient id="paint0_linear_1350_1214" x1="152.854" y1="146.801" x2="465.054" y2="521.826" gradientUnits="userSpaceOnUse">
<stop offset="0.0430108" stop-color="#FFC7DE"/>
<stop offset="0.0752688" stop-color="#FFC5DD"/>
<stop offset="0.3152" stop-color="#FFAED0"/>
<stop offset="0.6922" stop-color="#FF98C3"/>
<stop offset="0.8602" stop-color="#FF89BA"/>
</linearGradient>
<clipPath id="clip0_1350_1214">
<rect width="570.2" height="543.8" fill="white"/>
</clipPath>
</defs>
</svg>
