<svg width="571" height="544" viewBox="0 0 571 544" fill="none" xmlns="http://www.w3.org/2000/svg">
<g clip-path="url(#clip0_1350_1197)">
<path d="M285.1 0C327.5 0 386 148.7 392.5 152.8C399 156.8 556.1 175.8 569.1 206.4C582.1 237 461.2 347.5 458.2 355C455.2 362.5 485.4 519.7 460.6 540.3C435.8 560.9 293.7 480.4 285 480.4C276.3 480.4 140 561.3 109.4 540.3C78.8 519.3 114 363.5 111.8 355C109.6 346.5 -12.9 246.8 0.899996 206.4C14.7 165.9 171.9 157 177.5 152.8C183.4 148.6 242.7 0 285.1 0Z" fill="#50A0FF"/>
<path d="M285.1 18.5C324.7 18.5 376.5 162.5 382.6 166.2C388.6 170 537.7 182.4 549.9 210.8C562 239.3 446.7 339.7 443.9 346.7C441.1 353.7 471.9 502.9 448.8 522.1C425.6 541.3 293.2 463.6 285.2 463.6C277.1 463.6 150.1 541.7 121.6 522.1C93.1 502.5 131.2 357.3 129.1 349.4C127 341.4 7.5 248.5 20.4 210.8C33.3 173.1 185.1 170.1 190.4 166.2C195.6 162.3 245.6 18.5 285.1 18.5Z" fill="url(#paint0_linear_1350_1197)"/>
<path d="M58.4 220.3C56 193.4 144.2 178.8 147.7 210.2C151.1 241.7 61.6 256.9 58.4 220.3Z" fill="white"/>
<path d="M170.3 201.8C169.9 184.5 196.2 183.8 197.4 198C198.6 213.8 170.7 217.9 170.3 201.8Z" fill="white"/>
<path d="M142.2 250C133.8 242.9 146.3 211.3 179.8 211.3C213.3 211.3 225.1 242.5 218.2 250C212.2 256.6 204.8 229.7 180.6 229.7C156.4 229.6 149.3 256 142.2 250Z" fill="#541300"/>
<path d="M348.3 250C339.9 242.9 352.4 211.3 385.9 211.3C419.4 211.3 431.2 242.5 424.3 250C418.3 256.6 410.9 229.7 386.7 229.7C362.5 229.6 355.4 256 348.3 250Z" fill="#541300"/>
<g opacity="0.6">
<g opacity="0.6">
<path opacity="0.6" d="M203.1 304C203.1 321.4 187.8 335.6 168.9 335.6C150 335.6 134.7 321.5 134.7 304C134.7 286.6 150 272.4 168.9 272.4C187.8 272.5 203.1 286.6 203.1 304Z" fill="#FF1448"/>
</g>
<g opacity="0.6">
<path opacity="0.6" d="M430 304C430 321.4 414.7 335.6 395.8 335.6C376.9 335.6 361.6 321.5 361.6 304C361.6 286.6 376.9 272.4 395.8 272.4C414.7 272.5 430 286.6 430 304Z" fill="#FF1448"/>
</g>
</g>
<path d="M248.2 295.6C254.2 290.8 320.7 290.8 326.8 295.6C332.8 300.4 322.6 358.6 288.4 358.6C254.1 358.7 242.2 300.4 248.2 295.6Z" fill="#872A2A"/>
<path d="M288.5 329.2C285.6 329.5 273.3 317.8 265.4 323.4C257.5 328.9 272.3 353.1 288.9 352.7C305.5 352.3 316.7 328.5 309.8 323.4C302.8 318.3 294.1 328.7 288.5 329.2Z" fill="#F982B3"/>
</g>
<defs>
<linearGradient id="paint0_linear_1350_1197" x1="152.855" y1="146.8" x2="465.057" y2="521.827" gradientUnits="userSpaceOnUse">
<stop offset="0.0483871" stop-color="#BBDAFF"/>
<stop offset="0.130208" stop-color="#AAD1FF"/>
<stop offset="0.2848" stop-color="#93C4FF"/>
<stop offset="0.6222" stop-color="#7DB9FF"/>
<stop offset="0.8602" stop-color="#61AAFF"/>
</linearGradient>
<clipPath id="clip0_1350_1197">
<rect width="570.2" height="543.8" fill="white"/>
</clipPath>
</defs>
</svg>
